<?xml version="1.0" standalone="no"?>
<!DOCTYPE svg PUBLIC "-//W3C//DTD SVG 20010904//EN"
 "http://www.w3.org/TR/2001/REC-SVG-20010904/DTD/svg10.dtd">
<svg version="1.0" xmlns="http://www.w3.org/2000/svg"
 width="165.319432pt" height="64.027275pt" viewBox="0 0 165.319432 64.027275"
 preserveAspectRatio="xMidYMid meet">
<metadata>
Created by potrace 1.12, written by Peter Selinger 2001-2015
</metadata>
<g transform="translate(-12.680568,79.027275) scale(0.100000,-0.100000)"
fill="#000000" stroke="none">
<path d="M1495 778 c-2 -7 -9 -58 -15 -113 -7 -55 -30 -170 -52 -255 -22 -85
-42 -164 -45 -176 -5 -23 47 -84 72 -84 8 0 33 22 56 49 l43 50 38 -35 c52
-47 99 -68 132 -60 38 10 32 33 -24 85 -41 39 -50 53 -50 82 0 29 10 44 65 99
36 35 65 72 65 81 0 17 -53 69 -70 69 -14 0 -74 -62 -131 -136 -28 -35 -52
-64 -54 -64 -1 0 8 37 21 83 14 45 31 117 40 159 14 71 14 79 -2 113 -25 53
-78 84 -89 53z"/>
<path d="M165 728 c-2 -7 -9 -83 -15 -168 -6 -85 -15 -195 -20 -245 -9 -99 -2
-120 46 -152 24 -16 28 -16 59 2 19 9 53 44 77 76 23 33 46 59 50 59 5 0 8
-11 8 -25 0 -62 56 -125 111 -125 113 0 221 223 189 390 -25 133 -87 195 -194
195 -56 0 -61 -2 -64 -23 -5 -35 22 -68 70 -83 58 -19 73 -51 72 -154 -1 -87
-26 -170 -56 -189 -27 -17 -38 2 -53 99 -8 49 -19 93 -24 98 -24 24 -99 -33
-155 -117 -34 -50 -34 -36 0 138 15 75 23 147 20 161 -11 44 -110 96 -121 63z"/>
<path d="M864 556 c-88 -39 -166 -223 -134 -320 15 -47 62 -86 103 -86 111 1
208 117 215 256 4 65 2 73 -24 103 -28 34 -79 61 -111 61 -10 -1 -32 -7 -49
-14z m77 -103 c3 -75 -21 -144 -67 -189 -24 -25 -27 -26 -36 -10 -21 37 16
150 65 204 27 29 37 28 38 -5z"/>
<path d="M1142 558 c-8 -8 -12 -46 -12 -104 0 -65 -6 -112 -21 -159 -24 -78
-19 -121 17 -137 35 -16 58 9 84 95 47 156 69 191 142 235 29 17 45 52 33 71
-11 18 -83 12 -126 -9 l-40 -21 -26 21 c-30 23 -35 24 -51 8z"/>
</g>
</svg>
