<?xml version="1.0" standalone="no"?>
<!DOCTYPE svg PUBLIC "-//W3C//DTD SVG 20010904//EN"
 "http://www.w3.org/TR/2001/REC-SVG-20010904/DTD/svg10.dtd">
<svg version="1.0" xmlns="http://www.w3.org/2000/svg"
 width="93.130559pt" height="93.000000pt" viewBox="0 0 93.130559 93.000000"
 preserveAspectRatio="xMidYMid meet">
<metadata>
Created by potrace 1.12, written by Peter Selinger 2001-2015
</metadata>
<g transform="translate(-2.502162,98.000000) scale(0.100000,-0.100000)"
fill="#000000" stroke="none">
<path d="M37 974 c-9 -9 3 -57 17 -69 7 -5 20 -26 29 -45 21 -40 59 -98 81
-121 9 -8 24 -35 35 -60 11 -24 33 -58 48 -74 52 -57 83 -96 83 -106 0 -5 -17
-28 -38 -52 -21 -23 -49 -64 -62 -90 -14 -26 -37 -61 -52 -78 -16 -17 -28 -35
-28 -40 0 -5 -12 -22 -26 -37 -14 -15 -31 -41 -38 -58 -8 -17 -26 -40 -41 -52
-24 -19 -27 -42 -6 -42 14 0 279 129 285 138 3 6 17 13 31 16 14 4 50 18 80
31 29 14 57 25 61 25 4 0 29 14 57 31 28 17 82 41 121 54 132 42 294 143 282
175 -4 8 -28 26 -54 39 -66 32 -69 34 -168 87 -49 26 -111 59 -139 74 -27 14
-59 31 -70 37 -35 20 -210 101 -256 119 -24 10 -53 23 -64 31 -11 7 -29 13
-41 13 -12 0 -24 3 -26 8 -3 7 -81 52 -90 52 -3 0 -8 -3 -11 -6z m173 -116
c55 -23 149 -70 460 -230 189 -98 230 -121 230 -129 0 -12 -134 -77 -210 -103
-41 -14 -122 -49 -180 -78 -58 -30 -125 -60 -150 -68 -25 -8 -63 -26 -85 -40
-50 -32 -135 -72 -135 -64 0 12 43 78 72 112 15 18 41 61 57 95 16 34 39 71
51 82 31 28 53 74 46 99 -3 11 -30 48 -60 81 -30 33 -58 72 -61 86 -3 15 -15
35 -26 45 -11 10 -30 35 -41 56 -12 21 -24 38 -28 38 -3 0 -6 9 -7 20 -2 25 0
25 67 -2z"/>
</g>
</svg>
