<?xml version="1.0" standalone="no"?>
<!DOCTYPE svg PUBLIC "-//W3C//DTD SVG 20010904//EN"
 "http://www.w3.org/TR/2001/REC-SVG-20010904/DTD/svg10.dtd">
<svg version="1.0" xmlns="http://www.w3.org/2000/svg"
 width="286.776427pt" height="58.988038pt" viewBox="0 0 286.776427 58.988038"
 preserveAspectRatio="xMidYMid meet">
<metadata>
Created by potrace 1.12, written by Peter Selinger 2001-2015
</metadata>
<g transform="translate(-9.032683,69.988038) scale(0.100000,-0.100000)"
fill="#000000" stroke="none">
<path d="M328 680 c-101 -54 -227 -242 -236 -354 -6 -74 2 -99 45 -147 51 -56
86 -72 139 -64 59 8 177 69 208 106 28 33 31 46 17 68 -7 12 -20 10 -73 -12
-87 -35 -185 -52 -204 -36 -37 31 2 149 83 247 48 58 88 82 141 82 47 0 51 9
28 63 -29 70 -76 84 -148 47z"/>
<path d="M2746 652 c-4 -7 -7 -22 -21 -116 -5 -30 -9 -34 -46 -40 -54 -9 -79
-23 -79 -45 0 -28 42 -61 68 -54 27 7 27 5 -3 -90 -32 -101 -32 -127 3 -160
35 -33 79 -43 127 -27 51 17 105 66 105 96 0 30 -22 31 -91 7 -26 -10 -50 -15
-53 -12 -3 3 9 52 27 109 l33 104 58 17 c105 31 113 64 18 76 -48 5 -51 7 -46
29 10 39 -4 71 -40 93 -35 22 -52 26 -60 13z"/>
<path d="M704 512 c-76 -48 -134 -159 -134 -258 0 -101 51 -152 138 -139 119
18 228 220 177 329 -35 72 -121 105 -181 68z m84 -117 c2 -21 -4 -58 -14 -83
-16 -44 -68 -112 -85 -112 -16 0 -9 94 11 138 27 60 60 104 74 99 6 -2 12 -21
14 -42z"/>
<path d="M986 488 c-3 -24 -8 -74 -12 -112 -3 -37 -14 -93 -25 -124 -10 -30
-19 -62 -19 -71 0 -20 50 -71 70 -71 25 0 63 46 120 145 51 89 86 135 102 135
14 0 9 -52 -12 -125 -35 -121 -23 -174 30 -145 46 25 110 229 95 306 -7 42
-50 91 -85 99 -35 8 -70 -21 -125 -102 l-43 -65 5 60 c5 55 3 62 -20 86 -14
14 -37 26 -51 26 -22 0 -25 -5 -30 -42z"/>
<path d="M1435 518 c-2 -7 -9 -61 -14 -119 -6 -61 -19 -129 -31 -158 -19 -48
-19 -54 -5 -82 22 -41 57 -56 87 -37 13 8 52 64 87 123 35 59 74 119 87 134
37 42 39 6 9 -113 -29 -114 -30 -149 -2 -154 76 -15 162 261 112 358 -19 37
-69 64 -101 56 -15 -4 -43 -32 -69 -69 -24 -34 -51 -71 -59 -82 -13 -18 -13
-15 -5 25 12 64 12 65 -17 99 -27 32 -71 42 -79 19z"/>
<path d="M1982 509 c-76 -38 -143 -137 -157 -229 -13 -91 57 -171 150 -170 59
1 135 31 159 63 32 44 14 51 -94 36 -85 -12 -93 -12 -105 4 -7 9 -10 27 -8 40
4 20 10 22 71 22 71 0 123 16 160 48 49 44 16 148 -61 190 -41 22 -63 22 -115
-4z m86 -98 c29 -18 9 -46 -41 -55 -26 -5 -50 -6 -54 -3 -9 10 47 67 66 67 9
0 22 -4 29 -9z"/>
<path d="M2406 515 c-74 -26 -163 -134 -186 -227 -9 -36 -9 -52 3 -80 18 -44
73 -87 120 -95 74 -12 197 55 197 107 0 21 -3 22 -37 15 -21 -5 -67 -9 -103
-9 -58 -1 -65 1 -68 19 -7 52 109 185 147 169 9 -4 26 -9 39 -11 19 -5 22 -1
22 27 0 23 -9 41 -34 66 -38 38 -44 39 -100 19z"/>
</g>
</svg>
