<?xml version="1.0" standalone="no"?>
<!DOCTYPE svg PUBLIC "-//W3C//DTD SVG 20010904//EN"
 "http://www.w3.org/TR/2001/REC-SVG-20010904/DTD/svg10.dtd">
<svg version="1.0" xmlns="http://www.w3.org/2000/svg"
 width="169.676649pt" height="63.870390pt" viewBox="0 0 169.676649 63.870390"
 preserveAspectRatio="xMidYMid meet">
<metadata>
Created by potrace 1.12, written by Peter Selinger 2001-2015
</metadata>
<g transform="translate(-14.417184,76.991019) scale(0.100000,-0.100000)"
fill="#000000" stroke="none">
<path d="M1376 758 c-3 -7 -7 -51 -10 -98 -7 -104 -30 -244 -61 -365 -20 -80
-21 -93 -9 -117 19 -37 52 -54 69 -36 43 44 130 469 111 542 -14 57 -89 111
-100 74z"/>
<path d="M185 703 c-33 -9 -46 -24 -39 -47 13 -43 34 -56 92 -56 l55 0 -7 -52
c-4 -29 -20 -113 -37 -185 -16 -73 -29 -140 -29 -148 0 -8 13 -29 28 -47 42
-46 57 -34 77 59 10 43 32 140 51 217 18 76 31 142 28 147 -3 5 35 9 84 9 96
0 119 11 107 49 -13 42 -69 56 -235 58 -85 1 -164 -1 -175 -4z"/>
<path d="M690 533 c-102 -53 -171 -241 -124 -339 30 -64 95 -80 171 -43 80 39
143 148 143 247 0 108 -101 181 -190 135z m78 -124 c3 -53 -17 -105 -59 -154
-36 -40 -49 -38 -49 9 0 63 68 202 94 193 6 -2 12 -24 14 -48z"/>
<path d="M1053 534 c-68 -34 -134 -157 -134 -252 -1 -128 70 -181 176 -133 82
37 146 141 148 240 2 71 -22 114 -78 141 -49 24 -70 25 -112 4z m81 -90 c10
-27 6 -67 -13 -112 -19 -47 -66 -112 -81 -112 -6 0 -10 24 -10 54 0 38 7 67
26 102 41 78 66 100 78 68z"/>
<path d="M1720 541 c-44 -14 -90 -41 -131 -78 -64 -58 -52 -92 64 -178 20 -15
37 -34 37 -41 0 -19 -97 -19 -143 1 -32 13 -37 13 -51 0 -15 -15 -12 -38 7
-63 18 -23 64 -41 121 -48 48 -6 63 -3 110 20 99 49 96 118 -9 196 -45 33 -54
44 -45 55 20 24 72 36 109 25 19 -5 38 -7 42 -4 20 12 8 57 -25 90 -35 35 -44
38 -86 25z"/>
</g>
</svg>
