<?xml version="1.0" standalone="no"?>
<!DOCTYPE svg PUBLIC "-//W3C//DTD SVG 20010904//EN"
 "http://www.w3.org/TR/2001/REC-SVG-20010904/DTD/svg10.dtd">
<svg version="1.0" xmlns="http://www.w3.org/2000/svg"
 width="94.000000pt" height="98.102989pt" viewBox="0 0 94.000000 98.102989"
 preserveAspectRatio="xMidYMid meet">
<metadata>
Created by potrace 1.12, written by Peter Selinger 2001-2015
</metadata>
<g transform="translate(-3.000000,101.603373) scale(0.100000,-0.100000)"
fill="#000000" stroke="none">
<path d="M360 990 c-36 -16 -73 -30 -83 -30 -10 0 -61 -42 -112 -94 -82 -82
-96 -101 -110 -151 -9 -31 -14 -59 -11 -62 5 -5 45 78 46 95 1 4 10 18 21 31
19 24 20 24 70 7 28 -9 58 -16 65 -16 11 0 13 -12 8 -56 -6 -46 -4 -56 7 -52
8 3 15 13 17 24 10 64 10 64 55 58 52 -6 105 -11 134 -13 16 -1 23 -8 25 -28
4 -35 28 -43 28 -9 0 28 6 31 95 40 28 3 60 8 71 12 19 5 23 1 29 -36 9 -55
31 -47 27 11 l-2 44 61 28 c72 34 70 34 119 -60 18 -35 36 -63 41 -63 14 0 11
13 -16 75 -32 71 -113 158 -174 186 -25 12 -66 32 -91 44 -25 12 -72 26 -105
29 -148 18 -147 18 -215 -14z m136 -63 c-3 -33 -6 -84 -6 -114 l0 -55 -72 7
c-105 9 -111 12 -103 43 3 15 18 53 32 84 29 66 66 95 120 95 l36 0 -7 -60z
m78 42 c14 -7 33 -28 42 -47 9 -20 30 -58 46 -85 19 -33 26 -53 19 -60 -5 -5
-44 -12 -85 -15 l-76 -5 -1 42 c-1 22 -1 48 -1 56 0 133 2 138 56 114z m159
-49 c10 0 107 -64 107 -70 0 -3 -26 -18 -57 -34 -45 -22 -58 -25 -65 -14 -40
63 -59 95 -64 108 -3 8 -10 23 -15 32 -15 29 -11 30 38 3 27 -14 51 -25 56
-25z m-411 -17 c-11 -21 -25 -55 -32 -76 -9 -28 -16 -37 -28 -33 -118 34 -118
34 -76 63 15 10 38 29 51 43 21 21 91 52 101 44 2 -1 -5 -19 -16 -41z"/>
<path d="M30 603 c0 -10 11 -50 23 -89 32 -92 50 -93 93 -4 30 62 32 64 42 40
35 -89 42 -100 61 -100 24 0 36 20 45 77 3 23 9 49 12 58 5 13 2 16 -12 13
-14 -2 -21 -18 -29 -63 l-11 -60 -18 40 c-10 22 -22 50 -27 63 -21 54 -54 35
-86 -50 -9 -27 -20 -48 -24 -48 -3 0 -14 27 -23 59 -17 61 -46 102 -46 64z"/>
<path d="M483 605 c-13 -9 -23 -24 -23 -33 -1 -9 -9 -32 -18 -50 l-18 -33 -18
50 c-19 55 -46 87 -45 55 1 -37 44 -139 60 -142 11 -2 25 17 45 62 16 36 33
66 37 66 4 0 15 -17 23 -37 34 -84 40 -93 53 -91 8 2 19 23 26 48 6 25 15 55
19 68 13 39 -14 24 -32 -18 -20 -47 -28 -50 -35 -11 -3 16 -16 41 -29 55 -22
25 -24 26 -45 11z"/>
<path d="M800 585 c-5 -14 -17 -36 -26 -51 l-17 -25 -20 45 c-19 44 -37 61
-37 34 1 -30 40 -123 52 -126 8 -1 26 22 43 57 17 33 33 60 37 61 4 0 21 -29
37 -65 16 -36 34 -65 39 -65 11 0 62 121 62 145 0 31 -19 13 -36 -35 -19 -52
-31 -62 -40 -32 -19 60 -35 82 -59 82 -18 0 -28 -7 -35 -25z"/>
<path d="M36 373 c12 -49 34 -97 58 -123 12 -14 29 -36 38 -50 9 -14 35 -39
59 -55 24 -17 46 -33 47 -37 2 -5 9 -8 15 -8 6 0 18 -6 26 -13 15 -13 88 -39
121 -43 83 -11 127 -12 194 -2 61 8 85 17 110 38 17 15 45 34 62 43 58 30 111
94 171 204 27 50 30 72 8 53 -8 -7 -15 -16 -15 -21 0 -5 -19 -36 -41 -69 -39
-56 -61 -72 -73 -51 -3 4 -26 14 -52 21 l-46 13 7 59 c9 73 -10 80 -20 7 -6
-41 -10 -49 -24 -44 -9 4 -47 9 -85 11 -38 2 -71 6 -74 8 -2 3 -5 21 -5 40 -3
48 -22 46 -22 -2 l0 -37 -55 -7 c-30 -3 -76 -10 -102 -13 -49 -8 -56 -1 -49
39 1 5 -1 22 -4 38 -10 44 -25 23 -25 -36 l0 -54 -37 -7 c-21 -3 -48 -13 -60
-21 -20 -13 -24 -11 -52 23 -17 21 -37 55 -44 77 -16 47 -42 64 -31 19z m450
-109 c-3 -9 -6 -56 -6 -105 l0 -89 -32 0 c-18 0 -38 4 -43 8 -24 17 -110 170
-101 179 7 7 94 21 140 22 40 1 47 -2 42 -15z m163 10 c36 -7 39 -23 13 -70
-30 -56 -120 -144 -146 -144 -3 0 -6 50 -6 110 l0 110 54 0 c29 0 68 -3 85 -6z
m-342 -91 c20 -43 39 -81 41 -85 9 -20 -25 -3 -102 47 -46 31 -87 62 -90 70
-4 10 7 18 37 25 23 6 47 13 52 15 6 2 13 4 17 4 4 1 24 -34 45 -76z m453 47
c30 -11 56 -20 58 -20 13 0 -25 -43 -48 -55 -16 -8 -44 -28 -62 -44 -20 -17
-50 -31 -77 -35 l-44 -7 37 43 c20 24 47 64 59 90 12 26 22 48 22 48 0 0 25
-9 55 -20z"/>
</g>
</svg>
