<?xml version="1.0" standalone="no"?>
<!DOCTYPE svg PUBLIC "-//W3C//DTD SVG 20010904//EN"
 "http://www.w3.org/TR/2001/REC-SVG-20010904/DTD/svg10.dtd">
<svg version="1.0" xmlns="http://www.w3.org/2000/svg"
 width="98.093610pt" height="57.055131pt" viewBox="0 0 98.093610 57.055131"
 preserveAspectRatio="xMidYMid meet">
<metadata>
Created by potrace 1.12, written by Peter Selinger 2001-2015
</metadata>
<g transform="translate(-0.379513,58.934171) scale(0.100000,-0.100000)"
fill="#000000" stroke="none">
<path d="M887 584 c-8 -8 -180 -14 -447 -17 -202 -3 -224 -8 -235 -56 -7 -34
3 -119 16 -126 14 -9 27 27 22 65 -10 71 -9 71 203 75 104 2 252 6 330 8 78 3
146 2 152 -2 16 -10 18 -384 2 -436 l-12 -40 -281 1 c-155 1 -301 5 -325 9
-57 9 -75 37 -70 106 3 59 -15 78 -32 33 -18 -46 0 -123 33 -148 30 -22 137
-39 237 -37 30 1 146 2 257 4 118 1 206 6 211 12 5 6 17 33 25 60 13 42 14 80
8 235 -4 102 -13 197 -19 213 -7 15 -23 32 -37 37 -31 12 -30 12 -38 4z"/>
<path d="M300 482 c0 -11 39 -59 86 -108 85 -89 85 -89 62 -103 -38 -24 -138
-129 -138 -146 0 -28 22 -15 107 65 l86 80 37 -30 c21 -17 42 -30 46 -30 5 0
29 20 54 45 l46 46 55 -58 c30 -32 68 -76 86 -98 25 -32 34 -38 44 -28 18 18
-2 51 -83 139 -38 39 -68 76 -68 80 0 5 28 27 61 49 84 55 134 115 95 115 -21
0 -149 -95 -226 -167 -37 -35 -70 -63 -74 -63 -15 0 -123 90 -191 159 -38 39
-73 71 -77 71 -5 0 -8 -8 -8 -18z"/>
<path d="M22 420 c-36 -15 -16 -30 41 -30 51 0 88 13 75 26 -12 11 -92 14
-116 4z"/>
<path d="M44 309 c-13 -22 14 -28 145 -31 97 -2 135 0 138 9 5 15 -29 20 -169
27 -71 4 -109 2 -114 -5z"/>
<path d="M62 202 c-48 -5 -35 -26 18 -30 49 -4 90 4 90 17 0 10 -60 17 -108
13z"/>
</g>
</svg>
