<?xml version="1.0" standalone="no"?>
<!DOCTYPE svg PUBLIC "-//W3C//DTD SVG 20010904//EN"
 "http://www.w3.org/TR/2001/REC-SVG-20010904/DTD/svg10.dtd">
<svg version="1.0" xmlns="http://www.w3.org/2000/svg"
 width="96.372476pt" height="81.925601pt" viewBox="0 0 96.372476 81.925601"
 preserveAspectRatio="xMidYMid meet">
<metadata>
Created by potrace 1.12, written by Peter Selinger 2001-2015
</metadata>
<g transform="translate(-2.396317,84.925601) scale(0.100000,-0.100000)"
fill="#000000" stroke="none">
<path d="M705 845 c-5 -2 -29 -9 -53 -15 -55 -14 -115 -68 -145 -131 l-23 -50
-33 41 c-36 45 -126 115 -168 131 -47 18 -99 13 -135 -11 -59 -41 -107 -93
-119 -129 -21 -62 22 -73 181 -47 47 8 105 23 130 35 86 40 102 28 147 -111
43 -135 28 -279 -46 -443 -17 -37 -31 -72 -31 -76 0 -5 16 -9 35 -9 l34 0 25
83 c55 181 60 286 19 410 -14 45 -26 91 -25 102 0 11 15 32 32 48 31 28 58 34
76 18 9 -9 60 -39 119 -70 40 -21 224 -26 250 -7 15 11 16 17 6 48 -20 61 -66
123 -116 156 -39 26 -58 32 -99 31 -28 0 -55 -2 -61 -4z m158 -54 c34 -23 54
-47 76 -94 l30 -62 -42 -8 c-23 -4 -73 -6 -112 -2 -59 5 -82 12 -147 50 -81
47 -105 53 -128 33 -7 -7 -3 1 9 19 30 44 69 70 132 88 75 21 127 14 182 -24z
m-589 9 c14 -5 44 -23 67 -39 l41 -30 -63 5 c-44 4 -78 0 -109 -10 l-45 -15
85 5 c48 3 96 1 110 -5 18 -7 20 -10 7 -10 -10 -1 -34 -9 -55 -19 -41 -21
-221 -47 -252 -37 -11 3 -20 12 -20 18 0 29 51 84 120 129 28 19 77 23 114 8z
m205 -683 c-12 -40 -25 -67 -34 -67 -10 0 -5 19 18 70 17 38 32 68 33 67 2 -2
-6 -33 -17 -70z"/>
<path d="M710 732 c8 -5 40 -15 70 -22 30 -7 72 -21 92 -31 44 -23 54 -24 39
-5 -19 23 -103 54 -161 61 -36 4 -50 3 -40 -3z"/>
</g>
</svg>
