<?xml version="1.0" standalone="no"?>
<!DOCTYPE svg PUBLIC "-//W3C//DTD SVG 20010904//EN"
 "http://www.w3.org/TR/2001/REC-SVG-20010904/DTD/svg10.dtd">
<svg version="1.0" xmlns="http://www.w3.org/2000/svg"
 width="82.810202pt" height="91.335392pt" viewBox="0 0 82.810202 91.335392"
 preserveAspectRatio="xMidYMid meet">
<metadata>
Created by potrace 1.12, written by Peter Selinger 2001-2015
</metadata>
<g transform="translate(-7.000000,97.000000) scale(0.100000,-0.100000)"
fill="#000000" stroke="none">
<path d="M465 959 c-9 -14 -16 -183 -17 -392 l0 -168 -21 18 c-38 31 -97 98
-97 109 0 3 -9 19 -21 36 -16 22 -28 28 -48 26 -22 -3 -26 -7 -23 -33 6 -51
124 -189 195 -225 70 -37 103 -19 241 129 61 65 86 99 84 114 -2 11 -8 22 -14
24 -6 2 -59 -44 -118 -101 l-106 -106 -1 98 c-1 53 0 140 1 192 0 52 -2 139
-5 193 -6 85 -9 97 -25 97 -11 0 -22 -5 -25 -11z"/>
<path d="M696 173 c-4 -5 -139 -8 -300 -8 -311 0 -326 -2 -326 -48 0 -43 23
-53 107 -48 43 3 119 5 168 4 50 -1 116 -2 147 -3 31 0 60 -4 63 -9 3 -6 18
-6 38 0 17 4 83 10 144 12 102 3 115 6 138 27 32 30 32 36 -7 60 -24 15 -51
20 -99 20 -36 0 -69 -3 -73 -7z"/>
</g>
</svg>
