<?xml version="1.0" standalone="no"?>
<!DOCTYPE svg PUBLIC "-//W3C//DTD SVG 20010904//EN"
 "http://www.w3.org/TR/2001/REC-SVG-20010904/DTD/svg10.dtd">
<svg version="1.0" xmlns="http://www.w3.org/2000/svg"
 width="94.893049pt" height="90.715445pt" viewBox="0 0 94.893049 90.715445"
 preserveAspectRatio="xMidYMid meet">
<metadata>
Created by potrace 1.12, written by Peter Selinger 2001-2015
</metadata>
<g transform="translate(-2.032437,92.897169) scale(0.100000,-0.100000)"
fill="#000000" stroke="none">
<path d="M339 911 c-36 -9 -78 -25 -92 -34 -44 -29 -157 -139 -172 -167 -30
-58 -55 -147 -55 -195 1 -176 49 -294 157 -390 78 -70 138 -107 167 -103 16 3
10 9 -28 28 -86 44 -184 141 -222 220 -55 112 -69 256 -33 343 39 96 54 118
115 172 80 71 118 92 185 106 88 18 125 17 217 -1 143 -29 185 -54 273 -159
67 -79 72 -92 91 -241 l11 -85 -42 -88 c-22 -48 -53 -105 -67 -126 -32 -49
-150 -141 -181 -141 -29 0 -43 48 -43 145 l0 70 52 20 c40 15 60 31 87 69 31
43 36 59 39 118 4 58 1 75 -22 119 -17 31 -25 58 -21 70 10 30 -2 67 -24 74
-10 3 -39 -1 -64 -10 -37 -12 -55 -13 -98 -4 -31 7 -84 9 -128 5 -59 -5 -78
-3 -91 9 -9 8 -37 18 -62 21 -60 8 -73 -12 -59 -88 8 -45 6 -56 -10 -76 -43
-56 -48 -177 -10 -236 17 -25 96 -86 113 -86 4 0 19 -5 33 -10 23 -9 25 -13
15 -25 -28 -34 -119 -4 -135 44 -8 27 -60 47 -80 31 -22 -18 -19 -35 15 -71
16 -18 32 -46 36 -62 7 -32 45 -53 118 -66 38 -7 41 -9 40 -39 -1 -18 2 -32 7
-32 13 0 31 39 27 63 -2 18 -12 23 -54 29 -82 12 -101 23 -122 70 -10 24 -26
49 -35 57 -20 16 -22 31 -4 31 7 0 30 -20 50 -45 36 -43 40 -45 92 -45 48 0
56 3 74 29 12 16 21 31 21 34 0 3 -24 13 -52 21 -111 32 -158 88 -158 185 0
56 13 97 40 126 16 17 17 26 8 66 -15 66 -8 79 38 69 20 -5 43 -15 51 -23 12
-12 37 -13 122 -9 72 3 115 1 129 -7 17 -9 28 -8 53 4 16 9 42 15 57 13 25 -3
27 -6 24 -40 -3 -26 5 -55 24 -93 22 -47 26 -64 21 -106 -9 -71 -57 -144 -105
-160 -20 -7 -52 -18 -71 -26 -30 -13 -32 -16 -18 -31 10 -12 16 -45 19 -104 2
-73 6 -91 25 -109 18 -19 25 -20 52 -11 17 6 62 36 100 66 66 53 73 63 132
183 62 127 62 127 56 198 -10 130 -32 189 -100 271 -93 113 -181 155 -357 174
-52 5 -97 9 -100 9 -3 0 -35 -8 -71 -18z"/>
</g>
</svg>
