<?xml version="1.0" standalone="no"?>
<!DOCTYPE svg PUBLIC "-//W3C//DTD SVG 20010904//EN"
 "http://www.w3.org/TR/2001/REC-SVG-20010904/DTD/svg10.dtd">
<svg version="1.0" xmlns="http://www.w3.org/2000/svg"
 width="97.484453pt" height="97.399221pt" viewBox="0 0 97.484453 97.399221"
 preserveAspectRatio="xMidYMid meet">
<metadata>
Created by potrace 1.12, written by Peter Selinger 2001-2015
</metadata>
<g transform="translate(-2.169228,98.899221) scale(0.100000,-0.100000)"
fill="#000000" stroke="none">
<path d="M425 980 c-11 -5 -35 -9 -52 -9 -18 -1 -33 -5 -33 -10 0 -5 -20 -16
-45 -24 -76 -26 -129 -71 -188 -159 -45 -67 -59 -99 -73 -161 -16 -74 -16 -84
1 -200 20 -135 29 -164 57 -173 11 -3 34 -29 53 -57 51 -80 70 -95 148 -118
39 -11 92 -28 117 -37 29 -11 76 -17 135 -17 80 0 97 3 155 31 36 17 92 55
125 84 49 42 69 69 106 147 58 117 80 228 56 284 -7 19 -22 68 -31 110 -20 92
-58 153 -129 210 -66 52 -108 74 -184 93 -65 17 -185 20 -218 6z m240 -41 c73
-22 173 -93 215 -151 15 -21 35 -68 45 -105 9 -38 24 -89 33 -116 22 -66 5
-158 -52 -280 -40 -85 -49 -97 -118 -151 -41 -33 -95 -67 -119 -77 -55 -22
-192 -25 -246 -5 -21 8 -73 25 -116 37 -77 22 -78 22 -133 96 -31 41 -62 77
-70 80 -16 6 -31 51 -39 118 -3 28 -11 71 -17 98 -8 40 -7 62 12 135 13 52 33
101 49 122 15 19 38 53 53 75 19 31 45 51 108 83 45 23 91 42 103 42 12 0 42
7 67 15 54 18 135 12 225 -16z"/>
<path d="M250 740 c-39 -55 -14 -107 56 -117 35 -4 44 -2 58 18 21 31 21 82
-1 101 -10 8 -35 18 -55 21 -33 5 -40 2 -58 -23z m95 -16 c15 -15 14 -58 0
-73 -9 -8 -56 -3 -70 9 -14 11 -21 61 -10 71 12 12 65 7 80 -7z"/>
<path d="M478 623 c-20 -2 -42 -11 -48 -19 -9 -9 -13 -68 -14 -179 -2 -179 -2
-177 54 -171 14 2 37 4 53 5 l27 1 0 79 c0 89 13 138 41 146 38 12 42 -2 36
-112 l-7 -104 26 -9 c37 -14 76 -12 102 6 21 14 22 22 22 155 l0 139 -42 31
c-38 27 -50 30 -100 27 -31 -2 -60 0 -64 5 -7 7 -17 7 -86 0z m72 -48 c0 -14
5 -25 11 -25 6 0 20 11 31 25 22 29 55 32 98 10 52 -27 60 -49 60 -166 0 -59
-3 -114 -6 -123 -4 -11 -19 -16 -51 -16 l-44 0 4 95 c5 83 3 97 -15 120 -24
31 -39 31 -74 1 -26 -22 -28 -29 -32 -120 l-4 -96 -50 0 c-47 0 -50 1 -44 23
3 12 6 81 6 154 0 146 -3 139 73 142 33 1 37 -2 37 -24z"/>
<path d="M255 528 c-11 -106 -7 -250 8 -260 6 -4 31 -8 55 -8 36 0 44 4 52 25
10 27 7 286 -4 304 -4 6 -29 11 -55 11 l-48 0 -8 -72z m73 46 c21 -6 22 -10
22 -145 l0 -139 -40 0 -40 0 0 63 c0 111 12 227 24 227 6 0 21 -3 34 -6z"/>
</g>
</svg>
