<?xml version="1.0" standalone="no"?>
<!DOCTYPE svg PUBLIC "-//W3C//DTD SVG 20010904//EN"
 "http://www.w3.org/TR/2001/REC-SVG-20010904/DTD/svg10.dtd">
<svg version="1.0" xmlns="http://www.w3.org/2000/svg"
 width="93.120028pt" height="92.491682pt" viewBox="0 0 93.120028 92.491682"
 preserveAspectRatio="xMidYMid meet">
<metadata>
Created by potrace 1.12, written by Peter Selinger 2001-2015
</metadata>
<g transform="translate(-4.367278,95.925330) scale(0.100000,-0.100000)"
fill="#000000" stroke="none">
<path d="M819 897 c-70 -34 -133 -67 -140 -73 -8 -6 -25 -15 -39 -19 -14 -4
-48 -18 -77 -31 -28 -13 -55 -24 -59 -24 -4 0 -29 -14 -57 -31 -28 -17 -82
-41 -121 -54 -132 -42 -294 -143 -282 -175 4 -8 28 -26 54 -39 66 -32 69 -34
168 -87 49 -26 112 -59 139 -74 28 -14 59 -31 70 -37 35 -20 210 -101 256
-119 24 -10 53 -23 64 -31 11 -7 29 -13 41 -13 12 0 24 -3 26 -7 6 -15 88 -54
98 -48 12 7 2 56 -14 70 -7 6 -20 26 -29 45 -21 40 -59 98 -81 121 -9 8 -24
35 -35 60 -11 24 -33 58 -48 74 -52 57 -83 96 -83 106 0 5 17 28 38 52 21 23
49 64 62 90 14 26 37 61 53 78 15 17 27 35 27 40 0 5 12 22 26 37 14 15 31 41
38 58 8 17 26 40 41 52 26 20 27 43 2 41 -7 0 -69 -28 -138 -62z m20 -74 c-12
-21 -35 -53 -51 -71 -15 -18 -41 -61 -57 -95 -16 -34 -39 -71 -51 -82 -31 -28
-53 -74 -46 -99 3 -11 30 -48 60 -81 30 -33 58 -72 61 -86 3 -15 15 -35 26
-45 11 -10 30 -35 41 -56 12 -21 24 -38 28 -38 3 0 6 -9 7 -20 1 -11 -1 -20
-5 -20 -15 0 -125 49 -237 106 -411 210 -515 265 -515 275 0 12 134 77 210
103 41 14 122 49 180 78 58 30 125 60 150 68 25 7 52 19 60 26 20 17 154 83
159 79 2 -2 -7 -21 -20 -42z"/>
</g>
</svg>
