<?xml version="1.0" standalone="no"?>
<!DOCTYPE svg PUBLIC "-//W3C//DTD SVG 20010904//EN"
 "http://www.w3.org/TR/2001/REC-SVG-20010904/DTD/svg10.dtd">
<svg version="1.0" xmlns="http://www.w3.org/2000/svg"
 width="96.304776pt" height="93.734945pt" viewBox="0 0 96.304776 93.734945"
 preserveAspectRatio="xMidYMid meet">
<metadata>
Created by potrace 1.12, written by Peter Selinger 2001-2015
</metadata>
<g transform="translate(-2.649749,99.000000) scale(0.100000,-0.100000)"
fill="#000000" stroke="none">
<path d="M511 951 c-20 -32 -29 -38 -50 -34 -14 2 -33 11 -42 19 -22 20 -35
18 -56 -11 -17 -23 -20 -24 -50 -13 -46 17 -86 -12 -94 -70 -3 -23 -7 -43 -10
-44 -31 -19 -52 -28 -70 -28 -19 0 -21 -4 -15 -31 3 -17 6 -38 6 -46 0 -8 5
-11 11 -7 6 3 9 19 7 35 -3 18 0 29 8 29 6 0 17 7 24 15 17 21 30 19 30 -5 0
-11 7 -23 16 -27 9 -3 20 -15 24 -27 9 -21 9 -21 9 1 1 13 -8 27 -19 33 -16 8
-19 17 -14 38 4 15 6 43 5 62 0 27 6 39 26 54 22 17 30 17 59 7 32 -11 35 -10
58 16 24 27 25 27 38 10 8 -11 33 -22 55 -27 37 -6 42 -5 47 14 4 12 13 30 21
40 14 18 16 18 33 3 17 -15 19 -15 35 0 15 16 18 15 37 -2 11 -10 20 -24 20
-31 0 -9 8 -10 35 -1 24 7 31 13 23 18 -7 5 -14 4 -16 -1 -4 -12 -32 -13 -32
-2 0 11 -39 52 -50 52 -5 0 -15 -7 -23 -15 -13 -13 -16 -13 -27 0 -20 24 -34
18 -59 -24z"/>
<path d="M727 923 c-27 -7 -18 -48 10 -48 29 0 38 -12 23 -30 -19 -23 3 -44
25 -25 14 12 18 11 26 -1 5 -8 9 -20 9 -28 0 -9 8 -12 26 -8 18 3 27 0 32 -12
3 -9 16 -24 29 -34 12 -10 20 -24 17 -31 -3 -7 2 -19 11 -26 8 -7 15 -22 15
-33 0 -11 8 -29 17 -40 17 -18 16 -20 -17 -48 -28 -23 -41 -27 -68 -23 -32 6
-33 6 -30 -29 2 -42 -12 -62 -57 -78 -24 -9 -31 -17 -27 -31 4 -15 -2 -18 -31
-18 -19 0 -37 -6 -40 -12 -3 -10 -8 -9 -22 2 -10 8 -19 13 -21 10 -1 -3 -6 -2
-10 3 -4 4 9 7 29 7 29 0 40 6 54 28 10 15 24 32 32 38 8 6 11 16 7 22 -4 6 6
18 22 26 45 23 48 46 12 74 -16 13 -30 30 -30 37 0 20 -33 36 -51 24 -7 -5
-23 -9 -34 -9 -18 0 -18 1 -3 17 10 9 31 16 48 16 20 0 27 4 21 10 -25 25
-161 -46 -161 -84 0 -5 -19 -8 -42 -7 -35 3 -43 0 -46 -17 -2 -11 -9 -23 -15
-27 -6 -4 -8 -10 -4 -14 9 -9 37 15 37 32 0 11 9 13 38 8 36 -6 40 -4 60 30
20 33 23 35 47 24 19 -9 31 -8 49 2 28 14 46 7 46 -19 0 -10 11 -24 25 -31 14
-7 25 -17 25 -21 0 -10 -55 -49 -69 -49 -16 0 -13 -11 7 -26 16 -13 16 -13 -1
-14 -9 0 -23 -11 -29 -25 -21 -47 -117 -25 -139 32 -5 13 -13 23 -19 23 -18 0
-48 -73 -43 -107 7 -46 19 -41 32 12 6 25 16 45 21 45 6 0 10 -4 10 -10 0 -5
12 -16 28 -25 l27 -16 -31 6 c-19 4 -35 1 -41 -7 -9 -10 -4 -13 24 -15 19 -1
40 -6 46 -11 17 -14 67 -21 73 -11 3 5 16 9 29 9 36 0 55 10 55 31 0 10 5 19
11 19 6 0 24 9 40 21 22 16 29 28 29 55 0 29 3 34 24 34 14 0 40 10 60 23 38
24 47 56 21 77 -9 7 -14 19 -11 26 2 6 -2 20 -9 31 -8 10 -15 27 -15 39 0 11
-11 26 -24 34 -13 7 -27 22 -30 33 -3 14 -11 18 -24 15 -14 -4 -23 1 -31 18
-6 13 -16 24 -24 24 -7 0 -18 14 -24 30 -10 26 -15 30 -37 24 -30 -7 -34 3 -8
22 18 14 18 14 -11 7z"/>
<path d="M578 889 c-10 -10 -13 -19 -8 -19 13 0 13 -11 0 -30 -9 -13 -12 -13
-21 3 -5 9 -19 17 -29 17 -11 0 -20 6 -20 12 0 7 -8 2 -17 -12 -9 -13 -25 -32
-35 -42 -10 -10 -18 -22 -18 -28 0 -5 -7 -10 -16 -10 -11 0 -14 -8 -12 -32 3
-31 1 -33 -32 -36 -19 -2 -45 -13 -57 -24 -15 -14 -31 -19 -47 -16 -15 3 -26
2 -26 -2 0 -12 54 -19 66 -9 8 6 17 1 28 -16 12 -18 13 -23 2 -19 -7 3 -16 -2
-19 -10 -9 -23 -27 -20 -27 4 0 16 -7 20 -34 20 -21 0 -36 -6 -40 -15 -4 -11
-13 -14 -31 -9 -19 5 -25 2 -25 -10 0 -9 -8 -16 -19 -16 -22 0 -45 -25 -36
-39 3 -6 -4 -20 -16 -32 -17 -17 -23 -19 -30 -8 -5 8 -6 21 -3 31 2 9 0 19 -6
23 -17 11 -12 45 8 45 17 0 58 58 48 68 -3 2 -11 -7 -17 -21 -7 -17 -21 -27
-38 -29 -25 -3 -26 -6 -24 -56 1 -28 7 -61 13 -72 14 -27 60 -27 60 -1 0 10 6
21 14 24 9 4 12 14 9 26 -4 15 1 22 21 27 14 3 26 10 26 15 0 5 11 9 25 9 14
0 28 7 31 15 6 15 55 22 53 8 -1 -5 -1 -16 0 -25 1 -23 37 -24 45 -2 4 12 10
13 19 6 18 -16 19 39 0 60 -18 20 -10 38 17 38 12 0 20 -8 22 -22 3 -24 9 -25
70 -13 33 6 37 5 40 -16 3 -25 28 -35 56 -23 9 4 26 7 37 8 11 1 24 11 30 24
5 12 17 22 27 22 29 0 48 12 48 31 0 28 -22 69 -37 69 -8 0 -13 12 -13 34 0
18 -7 39 -15 46 -8 7 -15 21 -15 31 0 24 -10 23 -32 -2z m43 -51 c1 -7 0 -25
-1 -40 -1 -18 5 -28 17 -32 22 -7 46 -43 38 -56 -4 -6 -17 -10 -30 -10 -17 0
-29 -9 -41 -31 -11 -23 -19 -28 -27 -20 -8 8 -16 6 -28 -5 -24 -22 -49 -11
-49 22 0 24 -3 26 -27 20 -86 -21 -98 -19 -68 10 8 9 15 29 15 45 0 16 4 29 9
29 5 0 11 10 15 23 9 38 81 63 92 32 8 -21 28 -19 49 5 21 23 35 26 36 8z"/>
<path d="M745 760 c-10 -11 -15 -23 -11 -27 3 -4 15 3 26 15 11 11 16 23 11
26 -4 3 -16 -3 -26 -14z"/>
<path d="M795 750 c3 -5 12 -7 20 -3 10 3 15 -2 15 -16 0 -12 7 -24 15 -27 23
-9 19 -37 -5 -31 -10 3 -25 -2 -31 -9 -7 -8 -18 -13 -26 -10 -7 3 -13 1 -13
-3 0 -17 34 -22 45 -7 7 9 20 13 32 10 32 -9 42 34 14 57 -11 9 -21 24 -21 33
0 10 -9 16 -26 16 -14 0 -23 -4 -19 -10z"/>
<path d="M387 633 c-10 -9 -9 -23 2 -23 5 0 11 7 15 15 5 15 -5 20 -17 8z"/>
<path d="M430 544 c0 -5 7 -19 15 -30 16 -24 9 -39 -12 -22 -11 8 -22 1 -56
-34 -23 -25 -52 -49 -64 -52 -27 -8 -36 -32 -22 -58 13 -24 5 -35 -15 -19 -8
7 -28 12 -43 11 -47 -3 -52 -1 -55 28 -2 22 -7 26 -26 24 -14 -2 -24 3 -29 15
-8 23 -39 54 -47 46 -3 -3 0 -13 6 -21 7 -8 17 -24 23 -36 6 -11 21 -22 33
-24 12 -2 22 -9 22 -15 1 -30 20 -39 81 -42 68 -2 84 7 68 37 -11 21 -4 38 16
38 8 0 34 20 59 45 25 26 47 41 51 35 3 -5 13 -10 21 -10 21 0 17 54 -6 75
-11 10 -20 14 -20 9z"/>
<path d="M390 434 c0 -10 83 -104 91 -104 5 0 11 11 15 24 6 25 -19 86 -36 86
-9 0 -3 -24 20 -73 9 -20 9 -20 -2 -3 -31 45 -61 76 -74 76 -8 0 -14 -3 -14
-6z"/>
<path d="M383 383 c-7 -3 -13 -11 -13 -18 0 -7 -9 -15 -20 -18 -11 -3 -20 -12
-20 -20 0 -14 3 -14 30 -1 17 9 30 20 30 25 0 5 7 9 15 9 8 0 15 4 15 9 0 11
-21 19 -37 14z"/>
<path d="M527 304 c4 -22 -1 -55 -12 -89 l-19 -53 32 -36 c39 -45 40 -56 5
-56 -37 0 -26 -6 26 -14 40 -6 43 -5 38 14 -3 11 -1 20 4 20 5 0 9 5 9 10 0 6
-9 10 -19 10 -11 0 -31 14 -45 31 -25 29 -25 32 -11 66 16 37 19 73 9 111 -10
36 -23 25 -17 -14z"/>
<path d="M470 288 c0 -19 -7 -43 -15 -54 -17 -22 -19 -34 -5 -34 26 0 53 101
30 115 -6 4 -10 -8 -10 -27z"/>
<path d="M393 156 c-18 -18 -33 -36 -33 -40 0 -11 18 -6 34 10 15 14 16 14 16
-5 0 -41 18 -20 22 24 2 25 1 45 -2 44 -3 0 -20 -15 -37 -33z"/>
</g>
</svg>
