<?xml version="1.0" standalone="no"?>
<!DOCTYPE svg PUBLIC "-//W3C//DTD SVG 20010904//EN"
 "http://www.w3.org/TR/2001/REC-SVG-20010904/DTD/svg10.dtd">
<svg version="1.0" xmlns="http://www.w3.org/2000/svg"
 width="501.076331pt" height="501.104331pt" viewBox="0 0 501.076331 501.104331"
 preserveAspectRatio="xMidYMid meet">
<metadata>
Created by potrace 1.12, written by Peter Selinger 2001-2015
</metadata>
<g transform="translate(-5.451907,506.638853) scale(0.100000,-0.100000)"
fill="#000000" stroke="none">
<path d="M2350 5059 c-140 -11 -267 -30 -375 -58 -22 -6 -53 -13 -70 -16 -16
-4 -39 -10 -50 -14 -11 -5 -51 -18 -90 -30 -38 -12 -79 -26 -90 -30 -103 -42
-145 -61 -230 -102 -44 -22 -100 -51 -125 -66 -25 -14 -61 -35 -80 -45 -159
-89 -437 -328 -586 -503 -91 -107 -218 -281 -237 -325 -4 -8 -20 -37 -37 -65
-49 -82 -110 -210 -171 -360 -4 -11 -18 -51 -30 -90 -12 -38 -25 -79 -30 -90
-4 -11 -10 -33 -14 -50 -3 -16 -10 -48 -16 -70 -86 -337 -86 -833 0 -1170 6
-22 13 -53 16 -70 4 -16 10 -39 14 -50 5 -11 18 -51 30 -90 12 -38 26 -80 32
-92 5 -13 13 -33 18 -45 32 -81 105 -234 139 -293 101 -175 174 -279 286 -410
156 -182 401 -392 587 -501 109 -65 122 -72 204 -113 74 -36 128 -60 183 -82
12 -5 32 -13 45 -18 12 -6 54 -20 92 -32 39 -12 79 -25 90 -30 11 -4 34 -10
50 -14 17 -3 48 -10 70 -16 333 -85 837 -85 1170 0 22 6 54 13 70 16 17 4 39
10 50 14 11 5 52 18 90 30 39 12 80 26 93 32 12 5 32 13 45 18 125 50 297 137
377 190 14 9 37 23 51 30 34 17 196 138 273 205 90 77 213 201 292 296 76 92
194 252 194 264 0 5 8 20 19 34 50 71 140 248 192 380 5 12 13 32 18 45 13 29
41 113 52 155 5 17 14 49 20 70 104 368 113 883 20 1247 -6 22 -13 54 -16 70
-4 17 -10 39 -14 50 -5 11 -18 52 -30 90 -12 39 -27 81 -33 95 -6 14 -14 34
-18 45 -26 67 -103 230 -138 290 -100 172 -150 245 -266 385 -81 96 -203 221
-291 296 -128 110 -234 184 -410 286 -59 34 -212 107 -292 139 -13 5 -33 13
-45 18 -13 6 -54 20 -93 32 -38 12 -79 25 -90 30 -11 4 -33 10 -50 14 -16 3
-48 10 -70 16 -223 57 -521 78 -795 58z m415 -20 c146 -11 266 -29 385 -59 25
-6 60 -14 78 -17 18 -3 35 -9 38 -14 3 -5 16 -9 29 -9 13 0 27 -4 30 -10 3 -5
17 -10 30 -10 13 0 27 -4 30 -10 3 -5 15 -10 26 -10 10 0 27 -4 37 -9 9 -5 28
-13 42 -19 77 -31 205 -93 273 -131 20 -12 53 -30 73 -41 40 -23 216 -140 224
-149 3 -3 25 -22 50 -41 114 -87 316 -289 392 -392 15 -20 34 -42 41 -50 16
-16 127 -180 162 -240 27 -46 151 -296 167 -338 6 -14 14 -33 19 -42 5 -10 9
-27 9 -37 0 -11 5 -23 10 -26 6 -3 10 -17 10 -30 0 -13 5 -27 10 -30 6 -3 10
-17 10 -30 0 -13 4 -26 9 -29 5 -3 11 -20 14 -38 3 -18 11 -53 17 -78 95 -377
87 -882 -20 -1255 -6 -22 -14 -52 -17 -68 -3 -15 -9 -30 -14 -33 -5 -3 -9 -16
-9 -29 0 -13 -5 -27 -10 -30 -6 -3 -10 -15 -10 -26 0 -10 -4 -27 -9 -37 -5 -9
-13 -28 -19 -42 -15 -40 -140 -291 -168 -339 -14 -24 -48 -78 -76 -120 -46
-69 -78 -110 -168 -221 -37 -47 -191 -204 -257 -262 -131 -118 -293 -230 -458
-318 -27 -14 -59 -32 -70 -38 -20 -11 -138 -65 -185 -84 -14 -6 -33 -14 -42
-19 -10 -5 -27 -9 -37 -9 -11 0 -23 -4 -26 -10 -3 -5 -17 -10 -30 -10 -13 0
-26 -4 -29 -9 -3 -5 -18 -11 -33 -14 -16 -3 -46 -11 -68 -17 -373 -107 -878
-115 -1255 -20 -25 6 -60 14 -78 17 -18 3 -35 9 -38 14 -3 5 -16 9 -29 9 -13
0 -27 5 -30 10 -3 6 -17 10 -30 10 -13 0 -27 5 -30 10 -3 6 -15 10 -26 10 -10
0 -27 4 -37 9 -9 5 -28 13 -42 19 -39 15 -290 140 -338 168 -58 33 -223 144
-240 161 -8 7 -30 26 -50 41 -106 80 -304 278 -384 384 -15 20 -34 42 -41 50
-16 16 -129 183 -157 232 -11 20 -29 53 -41 73 -38 68 -100 196 -131 273 -6
14 -14 33 -19 42 -5 10 -9 27 -9 37 0 11 -4 23 -10 26 -5 3 -10 17 -10 30 0
13 -4 27 -10 30 -5 3 -10 17 -10 30 0 13 -4 26 -9 29 -5 3 -11 20 -14 38 -3
18 -11 53 -17 78 -33 132 -49 241 -61 427 -16 251 7 538 60 748 6 22 13 54 16
70 4 17 10 39 15 50 4 11 14 40 21 65 7 25 16 49 21 55 4 5 8 17 8 27 0 10 4
26 9 36 5 9 13 28 19 42 16 41 53 122 79 175 24 48 43 81 92 168 24 44 141
219 150 227 4 3 22 25 41 50 96 123 281 309 392 392 20 15 42 34 50 41 15 16
216 150 238 160 8 4 38 20 65 37 61 36 194 100 275 132 14 6 33 14 42 19 10 5
27 9 37 9 11 0 23 5 26 10 3 6 17 10 30 10 13 0 27 5 30 10 3 6 17 10 30 10
13 0 26 4 29 9 3 5 20 11 38 14 18 3 53 11 78 17 235 59 517 80 795 59z"/>
<path d="M2350 4976 c-3 -3 -46 -10 -95 -15 -114 -14 -236 -37 -315 -60 -19
-5 -51 -14 -70 -19 -43 -12 -127 -40 -157 -53 -13 -5 -33 -13 -45 -18 -224
-86 -502 -253 -683 -411 -50 -44 -230 -223 -271 -270 -137 -159 -316 -449
-385 -627 -15 -38 -28 -72 -38 -95 -13 -30 -41 -114 -52 -155 -5 -18 -14 -50
-20 -70 -52 -181 -74 -370 -74 -623 0 -255 22 -438 75 -625 6 -22 15 -53 19
-70 12 -43 40 -126 53 -155 6 -14 14 -34 18 -45 85 -222 252 -498 410 -680 45
-52 213 -220 265 -265 183 -160 439 -314 683 -411 12 -5 32 -13 45 -18 29 -13
113 -41 155 -52 17 -5 49 -14 70 -20 180 -51 366 -73 622 -73 255 0 446 22
620 73 19 5 51 14 70 19 46 13 129 40 160 54 14 6 34 14 45 18 222 85 507 257
680 409 53 47 222 216 265 266 158 182 325 458 410 680 4 11 12 31 18 45 13
30 41 113 53 158 5 17 14 49 20 70 51 180 73 366 73 622 0 256 -22 442 -73
623 -6 20 -15 52 -20 70 -11 41 -39 125 -52 155 -5 12 -13 32 -18 45 -97 243
-251 499 -411 682 -43 50 -212 219 -265 266 -154 136 -463 327 -630 389 -20 7
-55 21 -97 39 -28 12 -113 41 -153 52 -16 4 -48 13 -70 19 -76 22 -198 46
-305 61 -81 11 -522 24 -530 15z m-500 -1311 c52 -4 110 -11 128 -16 89 -25
110 -32 142 -46 74 -32 156 -75 184 -96 6 -4 30 -21 54 -38 23 -17 42 -38 42
-47 0 -15 -118 -183 -194 -277 l-24 -30 -44 24 c-155 84 -173 92 -290 112 -80
13 -182 -1 -266 -37 -68 -30 -144 -108 -183 -190 -30 -62 -38 -86 -61 -184
-16 -67 -22 -473 -8 -540 44 -214 125 -327 273 -381 40 -15 79 -19 171 -19
150 0 179 9 376 116 43 24 31 35 159 -151 30 -44 57 -82 60 -85 4 -3 17 -20
30 -39 l23 -33 -23 -22 c-66 -61 -217 -140 -329 -174 -88 -26 -251 -52 -326
-52 -149 0 -375 51 -490 111 -194 101 -345 270 -425 477 -5 12 -13 32 -18 45
-8 21 -20 64 -40 145 -41 164 -39 499 4 662 22 87 28 107 36 128 5 12 13 32
18 45 117 299 340 499 636 569 50 12 255 36 275 32 8 -1 58 -5 110 -9z m1211
-87 c7 -13 16 -41 20 -63 4 -22 12 -58 18 -80 23 -91 44 -176 61 -250 11 -48
19 -83 41 -170 6 -22 14 -58 19 -80 5 -22 14 -59 19 -82 12 -48 28 -111 40
-163 5 -19 14 -57 21 -85 6 -27 15 -67 20 -87 20 -77 31 -124 40 -163 5 -22
13 -58 19 -80 30 -119 47 -193 56 -235 4 -19 10 -46 15 -60 4 -14 14 -51 21
-82 6 -32 15 -58 19 -58 3 0 16 42 29 93 13 50 27 106 31 122 5 17 13 48 18
70 6 22 16 60 22 85 6 25 16 63 22 85 9 39 13 55 37 143 6 23 15 59 20 80 5
20 14 56 20 80 6 23 16 61 22 85 6 23 14 56 18 72 28 104 50 188 62 238 5 20
14 56 20 80 10 41 15 60 38 145 11 42 23 91 40 160 39 160 53 206 66 214 5 4
128 8 273 8 231 0 263 -2 269 -16 5 -15 -28 -137 -48 -176 -5 -10 -9 -25 -9
-33 0 -8 -4 -23 -9 -33 -5 -9 -28 -78 -51 -152 -23 -74 -46 -143 -51 -152 -5
-10 -9 -25 -9 -33 0 -8 -4 -23 -9 -33 -5 -9 -32 -91 -61 -182 -29 -91 -56
-173 -61 -182 -5 -10 -9 -25 -9 -33 0 -8 -4 -23 -9 -33 -5 -9 -28 -78 -51
-152 -23 -74 -46 -143 -51 -152 -5 -10 -9 -25 -9 -33 0 -8 -4 -23 -9 -33 -5
-9 -32 -91 -61 -182 -29 -91 -56 -173 -61 -182 -5 -10 -9 -25 -9 -33 0 -8 -4
-23 -9 -33 -5 -9 -29 -80 -54 -157 -77 -239 -111 -315 -201 -450 -69 -104
-193 -232 -285 -294 -63 -43 -218 -121 -240 -121 -6 0 -19 -4 -29 -9 -16 -8
-46 -17 -139 -40 -76 -19 -179 -33 -218 -29 -40 3 -40 3 -47 53 -4 28 -12 82
-18 120 -6 39 -13 100 -16 136 l-6 66 38 7 c75 15 139 27 172 33 18 3 35 9 38
14 3 5 13 9 23 9 41 0 157 70 215 129 l60 61 -21 62 c-11 35 -30 97 -43 138
-12 41 -26 84 -30 95 -7 19 -22 67 -70 225 -12 41 -26 84 -30 95 -7 19 -22 67
-70 225 -12 41 -26 84 -30 95 -4 11 -13 40 -20 65 -7 25 -16 54 -20 65 -4 11
-18 54 -30 95 -12 41 -26 84 -30 95 -4 11 -13 40 -20 65 -7 25 -16 54 -20 65
-4 11 -18 54 -30 95 -47 155 -63 206 -70 225 -7 19 -23 70 -70 225 -12 41 -26
84 -30 95 -4 11 -13 40 -20 65 -7 25 -16 54 -20 65 -27 71 -50 157 -45 165 4
6 114 10 285 10 l279 0 12 -22z"/>
</g>
</svg>
