<?xml version="1.0" standalone="no"?>
<!DOCTYPE svg PUBLIC "-//W3C//DTD SVG 20010904//EN"
 "http://www.w3.org/TR/2001/REC-SVG-20010904/DTD/svg10.dtd">
<svg version="1.0" xmlns="http://www.w3.org/2000/svg"
 width="412.929894pt" height="88.889084pt" viewBox="0 0 412.929894 88.889084"
 preserveAspectRatio="xMidYMid meet">
<metadata>
Created by potrace 1.12, written by Peter Selinger 2001-2015
</metadata>
<g transform="translate(-10.050705,100.930591) scale(0.100000,-0.100000)"
fill="#000000" stroke="none">
<path d="M1660 878 c-12 -124 -12 -132 6 -145 10 -7 23 -12 28 -10 13 4 54
135 62 198 6 43 4 48 -24 68 -54 38 -57 34 -72 -111z"/>
<path d="M195 888 c-2 -7 -6 -35 -10 -63 -14 -108 -42 -204 -64 -222 -19 -16
-21 -22 -12 -46 7 -19 8 -42 1 -70 -17 -75 -13 -101 24 -143 26 -29 37 -36 46
-28 6 6 23 56 37 110 13 55 26 101 28 103 7 6 124 29 129 24 2 -2 -2 -28 -10
-56 -22 -84 -19 -124 15 -158 16 -16 34 -29 40 -29 11 0 24 42 60 185 11 44
25 81 30 83 6 2 21 12 33 23 l23 19 -22 18 c-20 18 -21 20 -6 82 16 73 12 101
-24 148 -30 40 -67 41 -71 2 -5 -54 -35 -201 -41 -204 -3 -2 -34 -7 -67 -11
l-62 -7 15 64 c17 74 12 109 -23 155 -25 33 -61 44 -69 21z"/>
<path d="M1430 874 c-6 -14 -10 -34 -10 -44 0 -10 -16 -104 -35 -209 -19 -104
-35 -203 -35 -219 0 -32 42 -92 65 -92 19 0 31 38 70 225 20 94 41 187 46 208
13 51 5 86 -31 125 -35 39 -57 41 -70 6z"/>
<path d="M2826 878 c-34 -195 -49 -254 -68 -269 -17 -14 -20 -23 -15 -55 4
-22 2 -65 -4 -96 -10 -52 -9 -60 11 -93 25 -41 59 -63 70 -46 3 6 17 57 30
112 26 109 19 101 113 118 26 5 47 6 47 2 0 -3 -7 -31 -15 -61 -22 -83 -19
-113 15 -150 16 -17 35 -30 42 -28 7 3 28 63 47 136 31 123 35 132 62 141 32
11 38 37 13 56 -15 11 -15 19 -4 77 15 75 10 105 -26 147 -31 37 -62 41 -68 9
-2 -13 -12 -66 -21 -119 l-17 -96 -60 -7 c-34 -3 -63 -4 -65 -2 -2 2 1 33 8
68 14 76 9 105 -27 147 -31 37 -62 41 -68 9z"/>
<path d="M697 872 c-36 -39 -6 -108 55 -128 48 -15 64 50 25 107 -27 40 -56
48 -80 21z"/>
<path d="M3726 875 c-37 -37 -25 -85 30 -121 20 -14 29 -15 51 -5 22 10 24 16
19 43 -9 45 -45 98 -66 98 -10 0 -25 -7 -34 -15z"/>
<path d="M670 708 c-14 -33 -70 -306 -70 -343 0 -49 28 -68 63 -42 21 15 97
257 97 309 0 25 -8 46 -26 67 -31 37 -51 39 -64 9z"/>
<path d="M1797 723 c-3 -5 -8 -44 -12 -88 -3 -44 -16 -119 -27 -167 -20 -82
-20 -88 -4 -113 9 -14 29 -31 43 -38 24 -11 29 -8 62 29 20 23 60 84 89 137
76 138 89 139 70 6 -17 -128 -16 -139 12 -161 15 -10 33 -16 42 -13 8 3 34 43
57 88 64 123 104 187 118 187 17 0 16 -9 -7 -110 -22 -94 -25 -156 -10 -165
25 -15 53 9 80 69 49 109 63 225 36 291 -33 79 -108 64 -182 -38 l-44 -59 0
34 c0 38 -40 103 -69 113 -21 6 -70 -14 -89 -38 -7 -8 -26 -39 -42 -68 l-30
-54 6 57 c6 53 5 58 -21 82 -27 25 -69 35 -78 19z"/>
<path d="M3395 711 c-89 -40 -172 -179 -162 -270 6 -52 31 -90 78 -114 73 -39
230 6 237 67 l4 29 -49 -7 c-143 -19 -148 -19 -162 -2 -7 9 -11 26 -8 38 6 21
12 23 79 24 73 0 119 15 161 52 41 36 9 132 -62 179 -41 28 -63 28 -116 4z
m83 -103 c20 -20 14 -35 -19 -47 -36 -12 -79 -15 -79 -4 0 4 12 20 27 35 29
30 52 35 71 16z"/>
<path d="M3702 717 c-6 -7 -22 -65 -36 -128 -13 -62 -30 -138 -36 -167 -18
-82 1 -122 51 -107 19 6 59 116 95 259 18 74 10 114 -30 141 -25 18 -31 19
-44 2z"/>
<path d="M3885 718 c-2 -7 -9 -60 -14 -118 -6 -58 -19 -130 -30 -160 -17 -49
-18 -57 -5 -83 21 -40 57 -54 86 -35 13 8 52 64 87 123 35 59 74 119 87 134
37 42 39 6 9 -113 -29 -114 -30 -149 -2 -154 76 -15 162 261 112 358 -19 37
-69 64 -101 56 -15 -4 -43 -32 -69 -69 -24 -34 -51 -71 -59 -82 -13 -18 -13
-15 -5 25 12 64 12 65 -17 99 -27 32 -71 42 -79 19z"/>
<path d="M840 392 c-33 -34 -32 -52 6 -77 33 -21 30 -49 -12 -117 -19 -32 -32
-62 -29 -68 23 -37 119 41 150 122 29 77 4 149 -57 164 -22 5 -33 0 -58 -24z"/>
</g>
</svg>
