<?xml version="1.0" standalone="no"?>
<!DOCTYPE svg PUBLIC "-//W3C//DTD SVG 20010904//EN"
 "http://www.w3.org/TR/2001/REC-SVG-20010904/DTD/svg10.dtd">
<svg version="1.0" xmlns="http://www.w3.org/2000/svg"
 width="284.451694pt" height="60.858691pt" viewBox="0 0 284.451694 60.858691"
 preserveAspectRatio="xMidYMid meet">
<metadata>
Created by potrace 1.12, written by Peter Selinger 2001-2015
</metadata>
<g transform="translate(-14.232196,69.775997) scale(0.100000,-0.100000)"
fill="#000000" stroke="none">
<path d="M272 682 c-30 -11 -61 -27 -70 -36 -16 -16 -16 -19 0 -47 15 -26 16
-40 8 -102 -6 -40 -22 -115 -37 -167 -37 -135 -39 -169 -13 -203 39 -50 61
-35 93 64 l27 86 65 21 c90 30 171 84 206 140 54 86 33 187 -50 236 -49 28
-160 32 -229 8z m169 -102 c24 -13 26 -66 3 -99 -18 -25 -100 -81 -120 -81 -9
0 -10 9 -2 37 6 21 8 58 6 84 -4 41 -2 49 16 57 28 14 73 14 97 2z"/>
<path d="M2127 652 c-35 -38 -14 -99 43 -122 59 -24 81 36 37 101 -27 40 -56
48 -80 21z"/>
<path d="M1806 632 c-4 -7 -7 -22 -21 -116 -5 -30 -9 -34 -46 -40 -54 -9 -79
-23 -79 -45 0 -28 42 -61 68 -54 27 7 27 5 -3 -90 -32 -101 -32 -127 3 -160
35 -33 79 -43 127 -27 51 17 105 66 105 96 0 30 -22 31 -91 7 -26 -10 -50 -15
-53 -12 -3 3 9 52 27 109 l33 104 58 17 c105 31 113 64 18 76 -48 5 -51 7 -46
29 10 39 -4 71 -40 93 -35 22 -52 26 -60 13z"/>
<path d="M627 503 c-4 -3 -7 -48 -7 -99 0 -64 -6 -112 -20 -156 -24 -76 -25
-107 -4 -136 38 -54 79 -11 114 122 27 101 45 130 112 182 54 41 70 70 46 85
-24 16 -82 9 -123 -14 l-39 -22 -23 22 c-22 23 -44 29 -56 16z"/>
<path d="M1054 492 c-81 -38 -187 -198 -187 -284 0 -36 6 -47 41 -80 53 -49
83 -49 150 -3 46 31 51 33 57 16 3 -10 15 -27 26 -37 17 -15 21 -16 33 -3 16
17 51 162 48 204 -1 16 2 44 7 62 11 38 -8 80 -51 112 -38 31 -77 34 -124 13z
m82 -106 c10 -27 -45 -123 -88 -155 -42 -31 -78 -40 -78 -21 0 24 51 109 89
148 42 43 68 53 77 28z"/>
<path d="M1466 495 c-88 -31 -186 -171 -186 -266 0 -41 5 -53 33 -82 46 -46
87 -61 142 -53 63 10 139 63 143 100 3 27 2 28 -30 22 -77 -16 -160 -19 -168
-6 -19 31 45 141 101 174 22 13 33 14 59 5 43 -16 56 -2 37 43 -15 35 -60 78
-81 78 -6 -1 -29 -7 -50 -15z"/>
<path d="M2100 488 c-15 -34 -70 -306 -70 -343 0 -38 21 -59 50 -50 27 8 32
19 74 161 44 146 45 182 10 223 -31 37 -51 39 -64 9z"/>
<path d="M2426 495 c-88 -31 -186 -171 -186 -266 0 -41 5 -53 33 -82 46 -46
87 -61 142 -53 63 10 139 63 143 100 3 27 2 28 -30 22 -77 -16 -160 -19 -168
-6 -19 31 45 141 101 174 22 13 33 14 59 5 43 -16 56 -2 37 43 -15 35 -60 78
-81 78 -6 -1 -29 -7 -50 -15z"/>
<path d="M2782 489 c-46 -23 -110 -99 -137 -162 -22 -52 -19 -132 5 -172 22
-35 81 -65 128 -65 82 0 183 58 168 96 -5 14 -14 15 -59 8 -28 -4 -74 -8 -102
-8 l-50 -1 -3 37 -3 37 49 -6 c110 -13 222 52 208 121 -10 47 -54 106 -91 122
-46 19 -62 18 -113 -7z m98 -104 c10 -12 10 -18 0 -30 -11 -14 -96 -32 -106
-22 -3 2 7 19 21 36 29 34 65 41 85 16z"/>
</g>
</svg>
